<svg xmlns="http://www.w3.org/2000/svg" style="display: none;">

  <symbol id="icon-edit" viewBox="0 0 10 10">
    <path
      d="M10 1.328 2.604 8.767 1.283 7.419 8.66 0 10 1.328zM0 10l1.962-.588L.585 8.083 0 10z"
    />
  </symbol>

  <symbol id="icon-plus" viewBox="0 0 22 22">
    <path
      d="M22 9.778h-9.778V0H9.778v9.778H0v2.444h9.778V22h2.444v-9.778H22V9.778z"
    />
  </symbol>

  <symbol id="icon-heart" viewBox="0 0 21 19">
    <path
      d="M19.38 9.79a5.87 5.87 0 0 0 0-8.1 5.42 5.42 0 0 0-7.85 0l-1.05 1.1L9.43 1.7a5.37 5.37 0 0 0-7.82-.02A5.8 5.8 0 0 0 0 5.75 5.9 5.9 0 0 0 1.6 9.8l8.89 9.2 8.9-9.21zm-18-4.04A4.23 4.23 0 0 1 5.5 1.46a4 4 0 0 1 2.91 1.27l2.06 2.1 2.06-2.13a4.03 4.03 0 0 1 5.83 0 4.33 4.33 0 0 1 1.22 3.02c0 1.16-.43 2.22-1.22 3.02l-7.89 8.2L2.6 8.77a4.4 4.4 0 0 1-1.22-3.02z"
    />
  </symbol>

</svg>