<svg xmlns="http://www.w3.org/2000/svg"  style="display: none;">

  <symbol id="icon-edit" viewBox="0 0 10 10">
    <path
      d="M10 1.328 2.604 8.767 1.283 7.419 8.66 0 10 1.328zM0 10l1.962-.588L.585 8.083 0 10z"
    />
  </symbol>

  <symbol id="icon-plus" viewBox="0 0 22 22">
    <path
      d="M22 9.778h-9.778V0H9.778v9.778H0v2.444h9.778V22h2.444v-9.778H22V9.778z"
    />
  </symbol>

  <symbol id="icon-heart" viewBox="0 0 22 20">
    <path d="M12.7217 2.52923C14.6898 0.490569 17.8794 0.490684 19.8477 2.52923L19.8486 2.5302C21.8231 4.55519 21.826 7.88866 19.8477 9.93841L11.3115 18.7792L2.79785 9.95989C1.85983 8.96572 1.33109 7.64761 1.33105 6.24505C1.33108 4.83599 1.84245 3.51908 2.79785 2.52923L2.7998 2.52728C4.74489 0.492376 7.93113 0.489829 9.90039 2.54974L9.90234 2.55169L10.9531 3.63958L11.3164 4.01556L11.6758 3.63567L12.7217 2.52923Z" stroke="black"/>
  </symbol>

</svg>