<!-- 
  SVG Sprite de Ícones

  Este arquivo utiliza a abordagem moderna de sprites SVG para reunir ícones reutilizáveis,
  otimizando o carregamento e a consistência visual do projeto.

  Nota: Atualmente, a implementação via <use> pode apresentar instabilidades devido a limitações do
  validador automático a partir da Sprint 11. Este arquivo foi mantido para facilitar futuras ativações
  quando o bug for corrigido.

  Como usar:
    - Para adicionar um novo ícone, inclua um novo <symbol id=""> com <path> no bloco <svg>.
    - Para usar um ícone, utilize <svg><use href="./images/icons.svg#icon-id"></use></svg>.
-->
  <svg xmlns="http://www.w3.org/2000/svg"  style="display: none;">

  <symbol id="pencil" viewBox="0 0 10 10">
    <path
      d="M10 1.328 2.604 8.767 1.283 7.419 8.66 0 10 1.328zM0 10l1.962-.588L.585 8.083 0 10z"
    />
  </symbol>

  <symbol id="cross" viewBox="0 0 22 22">
    <path
      d="M22 9.778h-9.778V0H9.778v9.778H0v2.444h9.778V22h2.444v-9.778H22V9.778z"
    />
  </symbol>

  <symbol id="heart" viewBox="0 0 22 20">
    <path d="M12.7217 2.52923C14.6898 0.490569 17.8794 0.490684 19.8477 2.52923L19.8486 2.5302C21.8231 4.55519 21.826 7.88866 19.8477 9.93841L11.3115 18.7792L2.79785 9.95989C1.85983 8.96572 1.33109 7.64761 1.33105 6.24505C1.33108 4.83599 1.84245 3.51908 2.79785 2.52923L2.7998 2.52728C4.74489 0.492376 7.93113 0.489829 9.90039 2.54974L9.90234 2.55169L10.9531 3.63958L11.3164 4.01556L11.6758 3.63567L12.7217 2.52923Z" stroke="black"/>
  </symbol>

  <symbol id="trash" viewBox="0 0 19 20">
    <path fill="#fff" d="M2.7078 18.3922c.061.6704.6095 1.158 1.28 1.158h10.5236c.6704 0 1.219-.5079 1.2799-1.158L16.9697 6.04H1.5295l1.1783 12.3522ZM16.9701 2.18h-5.14v-.65c0-.7112-.5688-1.28-1.2799-1.28H7.9701c-.711 0-1.28.5688-1.28 1.28v.65H1.53c-.711 0-1.28.569-1.28 1.28 0 .711.5688 1.2798 1.28 1.2798h15.44c.711 0 1.2799-.5688 1.2799-1.2799 0-.711-.5689-1.2799-1.2799-1.2799Z"/>
</symbol>

</svg>